<svg width="148" height="46" viewBox="0 0 148 46" fill="none" xmlns="http://www.w3.org/2000/svg">
<path d="M142.096 0H5.90388C2.64326 0 0 2.88121 0 6.43537V39.2461C0 42.8003 2.64326 45.6815 5.90388 45.6815H142.096C145.357 45.6815 148 42.8003 148 39.2461V6.43537C148 2.88121 145.357 0 142.096 0Z" fill="#34393F"/>
<path fill-rule="evenodd" clip-rule="evenodd" d="M61.8703 29.0296C61.8703 26.4461 60.7724 19.9992 63.9185 20.1364C67.2101 20.28 65.401 26.6009 65.9548 29.0603L70.2357 29.0114C70.5492 27.5773 70.8251 20.1074 69.2998 17.9325C67.2384 14.9934 63.1259 15.6501 60.6967 17.8625C59.6285 16.9742 59.3292 15.9985 57.2413 15.9846C55.6181 15.9737 54.3681 16.8036 53.7632 17.6947L53.2179 16.3766L49.0618 16.4839L49.1266 29.0434L53.3545 29.0286C54.114 25.7774 51.7248 19.3609 56.4363 20.3945C57.6788 21.5309 57.4394 21.9533 57.4279 24.0927C57.4189 25.748 57.425 27.4046 57.425 29.0644L61.8703 29.0296Z" fill="#FEFEFE"/>
<path fill-rule="evenodd" clip-rule="evenodd" d="M21.7057 23.4206C21.3135 23.2118 20.2827 23.2559 21.2179 22.2529C21.5848 21.8594 22.0196 22.1295 22.6835 21.4499C23.2861 20.833 23.4404 18.4123 24.5916 20.5018C25.0041 21.2506 24.5719 21.1629 25.5224 21.7465C26.3408 22.2491 27.5878 22.2151 26.312 23.2172C26.028 23.4403 26.0822 23.3515 25.7828 23.5194C23.4513 24.8269 25.582 25.3846 23.7105 25.6299C22.6068 25.0902 24.0586 24.673 21.7057 23.4206ZM30.9106 16.3909C28.582 16.3417 28.8301 16.1814 26.9695 16.6482C25.6533 16.9785 25.1325 15.7548 22.7185 16.1231C16.4181 17.0841 15.9287 24.9229 19.533 27.7283C22.7126 30.2031 25.8859 28.3382 26.7735 28.245C25.6068 32.2509 21.7748 30.1439 19.3334 29.1944L17.8091 32.4409C21.751 34.9026 27.0885 35.2921 29.8664 31.5689C31.339 29.5951 31.0203 27.1858 31.02 24.3556C31.0199 22.0997 31.2321 18.4822 30.9106 16.3909Z" fill="#FEFEFE"/>
<path fill-rule="evenodd" clip-rule="evenodd" d="M123.381 24.2467C125.255 23.653 126.197 25.0334 125.182 26.0489C124.174 27.0574 122.786 26.1245 123.381 24.2467ZM125.961 21.7527L127.712 21.6336C129.115 24.5444 124.704 24.7361 125.961 21.7527ZM122.748 23.6134C121.271 24.1393 120.284 23.6839 120.922 21.7872C122.819 21.1494 123.28 22.1353 122.748 23.6134ZM123.43 19.1993C124.133 18.9919 124.698 19.0244 125.288 19.3402C126.171 22.2226 122.326 22.002 123.43 19.1993ZM116.59 28.9847C121.436 29.4792 119.807 28.1345 122.742 29.0666C125.758 30.0245 129.012 28.2183 130.06 25.0301C130.985 22.2126 130.246 19.4271 128.472 17.7464C125.858 15.2699 123.928 16.1103 121.035 16.8433L120.957 11.6869L116.704 11.6509L116.59 28.9847Z" fill="#FCA50B"/>
<path fill-rule="evenodd" clip-rule="evenodd" d="M87.0129 29.0224L91.3912 29.037C91.8524 26.3774 90.1915 20.3684 93.4473 20.2314C95.506 20.1446 95.5254 21.7548 95.5109 23.5433C95.4962 25.3592 95.5047 27.1755 95.5047 28.9915L100.013 29.0606C100.013 23.7574 101.461 16.3552 95.5805 15.9875C93.2334 15.8407 92.5292 16.98 91.3132 17.7292L91.2845 11.731L87.0493 11.7173L87.0129 29.0224Z" fill="#FEA60A"/>
<path fill-rule="evenodd" clip-rule="evenodd" d="M42.0666 23.8185C40.3145 26.8082 36.278 24.4358 37.5852 21.6135C38.8497 18.8832 43.8258 20.8163 42.0666 23.8185ZM41.9507 28.4404C43.0727 28.6971 42.3052 29.4578 46.5817 28.9856L46.6502 16.4699C44.6057 16.1585 43.9325 16.3803 42.333 16.7084C42.2834 16.7185 42.2081 16.7423 42.1586 16.7472C41.2888 16.8329 42.3969 16.943 40.8377 16.3665C34.5151 14.029 30.0449 22.9191 34.681 27.5981C36.2397 29.1713 39.6951 30.0188 41.9507 28.4404Z" fill="#FDFDFD"/>
<path fill-rule="evenodd" clip-rule="evenodd" d="M80.8178 21.1561L76.5559 21.1678C76.7483 20.0759 77.278 19.6236 78.6884 19.6384C80.0752 19.653 80.5948 20.129 80.8178 21.1561ZM76.5533 24.1179C84.7871 23.836 85.4057 25.2562 85.1853 21.9523C84.7812 15.893 78.134 14.8021 74.5412 17.2498C71.7489 19.1522 70.801 24.1179 73.5736 27.3314C76.3677 30.5699 81.202 29.1616 84.3656 27.6574C84.0798 26.4164 83.4227 25.8101 83.0064 24.8197C81.2072 24.9868 77.5623 27.055 76.5533 24.1179Z" fill="#FDFDFD"/>
<path fill-rule="evenodd" clip-rule="evenodd" d="M102.158 16.4465C101.971 18.2978 101.945 24.1121 102.386 25.6239C103.84 30.6106 112.725 30.7219 114.097 25.4386C114.479 23.9693 114.496 18.1275 114.278 16.3931L110.112 16.3961C109.751 18.7528 111.231 25.2237 108.195 25.2225C106.158 25.2216 106.466 23.1469 106.477 21.411C106.487 19.8464 106.562 18.0211 106.428 16.4016L102.158 16.4465Z" fill="#FEA60A"/>
<path fill-rule="evenodd" clip-rule="evenodd" d="M42.0671 23.8226C43.8262 20.8205 38.8502 18.8873 37.5856 21.6176C36.2784 24.44 40.3149 26.8123 42.0671 23.8226Z" fill="#343A40"/>
<path fill-rule="evenodd" clip-rule="evenodd" d="M23.7169 25.6295C25.5884 25.3842 23.4577 24.8266 25.7892 23.519C26.0886 23.3512 26.0344 23.44 26.3184 23.2168C27.5942 22.2148 26.3472 22.2487 25.5287 21.7461C24.5782 21.1625 25.0105 21.2503 24.598 20.5014C23.4467 18.4119 23.2925 20.8326 22.6898 21.4496C22.0259 22.1291 21.5912 21.859 21.2243 22.2525C20.2891 23.2555 21.3199 23.2114 21.712 23.4202C24.065 24.6726 22.6131 25.0898 23.7169 25.6295Z" fill="#363B41"/>
<path fill-rule="evenodd" clip-rule="evenodd" d="M80.8217 21.1631C80.5988 20.1359 80.0792 19.6599 78.6923 19.6454C77.2819 19.6306 76.7522 20.0828 76.5598 21.1748L80.8217 21.1631Z" fill="#3A3F44"/>
<path fill-rule="evenodd" clip-rule="evenodd" d="M123.367 24.2608C122.772 26.1386 124.16 27.0715 125.169 26.063C126.184 25.0475 125.241 23.6671 123.367 24.2608Z" fill="#34393F"/>
<path fill-rule="evenodd" clip-rule="evenodd" d="M125.945 21.7774C124.688 24.7608 129.099 24.5691 127.696 21.6582L125.945 21.7774Z" fill="#383B3E"/>
<path fill-rule="evenodd" clip-rule="evenodd" d="M123.42 19.2049C122.316 22.0076 126.16 22.2282 125.278 19.3458C124.687 19.0299 124.123 18.9975 123.42 19.2049Z" fill="#373A3E"/>
<path fill-rule="evenodd" clip-rule="evenodd" d="M122.74 23.6209C123.271 22.1428 122.811 21.1569 120.913 21.7946C120.276 23.6913 121.263 24.1468 122.74 23.6209Z" fill="#383B3E"/>
</svg>
