<svg width="968" height="299" viewBox="0 0 968 299" fill="none" xmlns="http://www.w3.org/2000/svg">
<path d="M928.842 0H38.592C17.2782 0 0 18.8337 0 42.0661V256.54C0 279.773 17.2782 298.607 38.592 298.607H928.842C950.155 298.607 967.434 279.773 967.434 256.54V42.0661C967.434 18.8337 950.155 0 928.842 0Z" fill="#34393F"/>
<path fill-rule="evenodd" clip-rule="evenodd" d="M404.404 189.716C404.404 172.828 397.228 130.687 417.792 131.584C439.309 132.523 427.483 173.84 431.104 189.917L459.086 189.597C461.136 180.223 462.939 131.394 452.968 117.178C439.494 97.9653 412.612 102.258 396.733 116.72C389.75 110.914 387.794 104.536 374.145 104.444C363.535 104.373 355.364 109.798 351.41 115.623L347.846 107.007L320.678 107.708L321.102 189.807L348.739 189.709C353.703 168.458 338.086 126.515 368.883 133.271C377.006 140.699 375.441 143.461 375.365 157.445C375.306 168.265 375.346 179.094 375.346 189.944L404.404 189.716Z" fill="#FEFEFE"/>
<path fill-rule="evenodd" clip-rule="evenodd" d="M141.911 153.104C139.348 151.739 132.61 152.028 138.723 145.471C141.122 142.899 143.963 144.665 148.303 140.223C152.242 136.189 153.251 120.366 160.776 134.025C163.473 138.92 160.647 138.346 166.86 142.161C172.21 145.446 180.361 145.224 172.022 151.775C170.165 153.233 170.52 152.653 168.563 153.75C153.322 162.297 167.25 165.942 155.017 167.546C147.802 164.018 157.292 161.291 141.911 153.104ZM202.081 107.153C186.86 106.832 188.482 105.784 176.32 108.835C167.716 110.994 164.312 102.995 148.532 105.403C107.348 111.685 104.149 162.924 127.709 181.263C148.494 197.439 169.236 185.249 175.039 184.64C167.412 210.825 142.363 197.052 126.405 190.846L116.441 212.067C142.208 228.159 177.097 230.705 195.256 206.367C204.882 193.465 202.799 177.716 202.797 159.216C202.796 144.47 204.183 120.823 202.081 107.153Z" fill="#FEFEFE"/>
<path fill-rule="evenodd" clip-rule="evenodd" d="M806.461 158.543C818.71 154.662 824.871 163.685 818.236 170.323C811.646 176.915 802.573 170.817 806.461 158.543ZM823.324 142.24L834.771 141.461C843.94 160.489 815.105 161.742 823.324 142.24ZM802.322 154.403C792.671 157.84 786.218 154.863 790.384 142.465C802.79 138.296 805.798 144.741 802.322 154.403ZM806.782 125.549C811.376 124.193 815.068 124.405 818.927 126.47C824.695 145.312 799.566 143.87 806.782 125.549ZM762.069 189.514C793.75 192.746 783.097 183.956 802.283 190.048C822.001 196.31 843.27 184.503 850.117 163.663C856.168 145.246 851.336 127.038 839.739 116.052C822.649 99.8635 810.034 105.357 791.126 110.149L790.614 76.4425L762.818 76.207L762.069 189.514Z" fill="#FCA50B"/>
<path fill-rule="evenodd" clip-rule="evenodd" d="M568.777 189.711L597.396 189.807C600.411 172.422 589.554 133.143 610.836 132.247C624.293 131.68 624.42 142.205 624.325 153.896C624.229 165.766 624.285 177.639 624.285 189.509L653.756 189.961C653.756 155.295 663.218 106.91 624.78 104.506C609.438 103.546 604.835 110.993 596.886 115.891L596.699 76.6824L569.014 76.5928L568.777 189.711Z" fill="#FEA60A"/>
<path fill-rule="evenodd" clip-rule="evenodd" d="M274.979 155.711C263.525 175.254 237.14 159.747 245.685 141.298C253.951 123.451 286.478 136.087 274.979 155.711ZM274.221 185.924C281.555 187.601 276.538 192.574 304.492 189.487L304.94 107.676C291.576 105.64 287.175 107.09 276.72 109.234C276.395 109.3 275.903 109.456 275.58 109.488C269.894 110.048 277.137 110.768 266.946 107C225.616 91.7203 196.396 149.832 226.701 180.417C236.89 190.701 259.477 196.241 274.221 185.924Z" fill="#FDFDFD"/>
<path fill-rule="evenodd" clip-rule="evenodd" d="M528.301 138.291L500.442 138.367C501.699 131.229 505.162 128.273 514.381 128.37C523.447 128.465 526.843 131.576 528.301 138.291ZM500.425 157.651C554.247 155.808 558.29 165.091 556.85 143.495C554.208 103.887 510.757 96.7563 487.273 112.756C469.02 125.192 462.824 157.651 480.948 178.657C499.212 199.826 530.812 190.62 551.491 180.788C549.623 172.675 545.328 168.712 542.607 162.238C530.846 163.331 507.02 176.85 500.425 157.651Z" fill="#FDFDFD"/>
<path fill-rule="evenodd" clip-rule="evenodd" d="M667.755 107.486C666.531 119.588 666.365 157.594 669.246 167.476C678.747 200.073 736.83 200.801 745.797 166.265C748.291 156.66 748.408 118.475 746.977 107.137L719.747 107.156C717.388 122.561 727.065 164.86 707.214 164.852C693.901 164.847 695.916 151.285 695.989 139.938C696.054 129.71 696.545 117.779 695.663 107.192L667.755 107.486Z" fill="#FEA60A"/>
<path fill-rule="evenodd" clip-rule="evenodd" d="M274.978 155.711C286.478 136.087 253.951 123.451 245.684 141.298C237.14 159.747 263.525 175.254 274.978 155.711Z" fill="#343A40"/>
<path fill-rule="evenodd" clip-rule="evenodd" d="M155.017 167.546C167.25 165.942 153.322 162.297 168.563 153.75C170.52 152.653 170.165 153.233 172.022 151.775C180.361 145.225 172.21 145.446 166.86 142.161C160.647 138.346 163.472 138.92 160.776 134.025C153.251 120.367 152.242 136.19 148.303 140.223C143.963 144.665 141.121 142.899 138.723 145.471C132.61 152.028 139.348 151.739 141.911 153.104C157.292 161.291 147.802 164.018 155.017 167.546Z" fill="#363B41"/>
<path fill-rule="evenodd" clip-rule="evenodd" d="M528.301 138.291C526.843 131.577 523.447 128.465 514.381 128.37C505.162 128.273 501.699 131.23 500.442 138.367L528.301 138.291Z" fill="#3A3F44"/>
<path fill-rule="evenodd" clip-rule="evenodd" d="M806.461 158.542C802.572 170.817 811.646 176.915 818.235 170.322C824.87 163.685 818.71 154.661 806.461 158.542Z" fill="#34393F"/>
<path fill-rule="evenodd" clip-rule="evenodd" d="M823.324 142.24C815.105 161.742 843.94 160.489 834.771 141.461L823.324 142.24Z" fill="#383B3E"/>
<path fill-rule="evenodd" clip-rule="evenodd" d="M806.782 125.549C799.566 143.869 824.695 145.311 818.927 126.47C815.068 124.405 811.376 124.193 806.782 125.549Z" fill="#373A3E"/>
<path fill-rule="evenodd" clip-rule="evenodd" d="M802.323 154.403C805.798 144.741 802.79 138.296 790.385 142.465C786.218 154.863 792.671 157.84 802.323 154.403Z" fill="#383B3E"/>
</svg>
